<svg width="22" height="21" viewBox="0 0 22 21" fill="none" xmlns="http://www.w3.org/2000/svg">
<path fill-rule="evenodd" clip-rule="evenodd" d="M2.66668 14.2352L6.83334 10.0685L10.4792 13.7144L17.25 6.94354L19.3333 9.02687V2.16668H2.66668V14.2352ZM2.66668 17.1815V18.8333H12.6519L6.83334 13.0148L2.66668 17.1815ZM15.5982 18.8333H19.3333V11.9732L17.25 9.88982L11.9523 15.1875L15.5982 18.8333ZM2.66668 0.0833435H19.3333C20.4839 0.0833435 21.4167 1.01608 21.4167 2.16668V18.8333C21.4167 19.9839 20.4839 20.9167 19.3333 20.9167H2.66668C1.51608 20.9167 0.583344 19.9839 0.583344 18.8333V2.16668C0.583344 1.01608 1.51608 0.0833435 2.66668 0.0833435ZM9.95834 3.20834C11.6842 3.20834 13.0833 4.60745 13.0833 6.33334C13.0833 8.05923 11.6842 9.45834 9.95834 9.45834C8.23245 9.45834 6.83334 8.05923 6.83334 6.33334C6.83334 4.60745 8.23245 3.20834 9.95834 3.20834ZM9.95834 5.29168C9.38305 5.29168 8.91668 5.75805 8.91668 6.33334C8.91668 6.90864 9.38305 7.37501 9.95834 7.37501C10.5336 7.37501 11 6.90864 11 6.33334C11 5.75805 10.5336 5.29168 9.95834 5.29168Z" fill="#97AACD"/>
</svg>
